<?xml version="1.0" encoding="utf-8"?>
<!-- Generator: Adobe Illustrator 25.1.0, SVG Export Plug-In . SVG Version: 6.00 Build 0)  -->
<svg version="1.1" id="Layer_1" xmlns="http://www.w3.org/2000/svg" xmlns:xlink="http://www.w3.org/1999/xlink" x="0px" y="0px"
	 viewBox="0 0 41 54" style="enable-background:new 0 0 41 54;" xml:space="preserve">
<style type="text/css">
	.st0{fill:#EFEFEF;}
</style>
<path class="st0" d="M33,23.2c0.7-0.3,1.2-0.4,1.7-0.3c0.8,0.2,1.2,0.8,1.5,1.1c0.3,0.6,1.4,1.2,1.9,1.3c0.4,0.1,1.1-1,1.6-2
	c0.5-0.9,0.8-2.1,0.7-2.4S38.9,20,38.6,20c-0.2,0-0.6,0.2-1.3,0.1s-1.4-0.9-1.8-1.5c-0.7-1-1.7-1.6-2.6-2.1c-1-0.5-2.1-0.8-3.2-1
	c-1.6-0.4-3.2-0.7-4.8-0.5c-0.9,0.1-2,0.2-2.8,0.5c-0.1,0-0.3,0.3-0.1,0.3c0.2,0,0.9,0.1,0.9,0.1S22,16.1,22,16.3
	c0,0.2,0.1,0.2,0.2,0.2s2.3-0.1,3.2,0c1,0.2,2.1,0.7,2.8,1.9c1.2,2.2,0.7,4.3,0.4,5c-1.5,3.3-13.4,23.6-14,25s-0.8,2.3,0.9,3.2
	s2.6,0.5,3.1-0.1C19.2,50.7,29.5,24.9,33,23.2z M27.4,36.7h2.4c1.6,0,1.9,0.8,1.9,1.1c0.1,0.8-0.3,1.8-1.9,1.8h-1.5l1.2,2
	c0.7,1.2,0.4,1.8,0,2.2c-0.6,0.6-1.9,0.6-2.6-0.7l-1.4-2.4c-1,2.2-2,4.6-3.2,7.4h6.2c3,0,5.5-2.5,5.5-5.5V25.8c0-0.3,0-0.4,0-0.7
	c-0.1-0.2-0.3-0.1-0.4,0C33,25.8,31.3,28.2,27.4,36.7z M12.2,49.1h-0.5c-3.6,0-6.5-2.9-6.5-6.5V25.8c0-3.6,2.9-6.5,6.5-6.5h14.5
	c-0.3-0.3-1.5-0.8-2.7-0.7c-0.5,0-1.5,0.2-2.1-0.2c-0.6-0.5-0.5-0.8-1.4-0.8c-2.7,0-8.9,0-8.9,0c-4.1,0-7.4,3.3-7.4,7.4v18.2
	c0,4.1,3.3,7.4,6.9,7.3C11.6,50.5,11.9,49.7,12.2,49.1z M35.1,25.7v16.9c0,3.6-2.9,6.5-6.5,6.5h-6.7c0,0-0.6,1.6,1.3,1.6
	c2.7,0,6,0,6,0c4.1,0,7.4-3.3,7.4-7.4c0,0,0-11.2,0-14.7C36.7,27.2,35.5,26.3,35.1,25.7z M6.3,25.8v16.8c0,3,2.5,5.5,5.5,5.5h0.9
	c0-0.1,1.2-2.2,3.8-6.6c0.3-0.6,0.7-1.2,1.1-1.9h-7.3c-0.9,0-1.4-0.6-1.5-1.1c-0.2-0.8,0.3-1.8,1.4-1.8h3.7l4.7-8.2
	c0,0-1.1-2-1.4-2.5c-0.4-0.7-0.2-1.4,0.2-1.8c0.6-0.6,1.6-0.9,2.6,0.7l0.4,0.6l0.4-0.6c0.9-1.3,1.5-1.2,2-1.1
	c0.8,0.2,1.3,1.1,0.6,2.5l-6.2,10.4h2.1c0.7-1.2,1.4-2.4,2.1-3.7c-0.1-0.5-0.2-1.1-0.1-1.6c0.1-0.8,0.5-1.5,1-2.1l0.6,1
	c1.9-3.3,3.3-6.1,3.7-7.2c0.2-0.6,0.5-1.8,0.2-2.8h-15C8.7,20.3,6.3,22.8,6.3,25.8z M10.6,42.5c0-0.1,1.2-2.2,1.2-2.2
	c1.9-0.5,2.8,0.7,2.9,0.8c0,0-1.3,2.3-1.7,2.7s-0.9,0.5-1.4,0.4C10.8,44,10.3,43.2,10.6,42.5z"/>
</svg>
