<svg width="46" height="46" xmlns="http://www.w3.org/2000/svg" xml:space="preserve" version="1.1">

 <g>
  <title>Layer 1</title>
  <path id="svg_1" fill="#333333" d="m35.175,12.66806c0.7,-0.3 1.2,-0.4 1.7,-0.3c0.8,0.2 1.2,0.8 1.5,1.1c0.3,0.6 1.39999,1.2 1.89999,1.3c0.40001,0.1 1.10001,-1 1.60001,-2c0.5,-0.9 0.8,-2.1 0.7,-2.4s-1.5,-0.9 -1.8,-0.9c-0.2,0 -0.59999,0.2 -1.3,0.1s-1.4,-0.9 -1.8,-1.5c-0.7,-1 -1.7,-1.6 -2.60001,-2.1c-1,-0.5 -2.1,-0.8 -3.2,-1c-1.6,-0.4 -3.2,-0.7 -4.8,-0.5c-0.89999,0.1 -2,0.2 -2.8,0.5c-0.1,0 -0.3,0.3 -0.1,0.3c0.2,0 0.89999,0.1 0.89999,0.1s-0.89999,0.2 -0.89999,0.4c0,0.2 0.1,0.2 0.2,0.2s2.3,-0.1 3.2,0c1,0.2 2.10001,0.7 2.8,1.9c1.2,2.2 0.7,4.3 0.4,5c-1.5,3.3 -13.4,23.6 -14,25s-0.8,2.3 0.9,3.2s2.6,0.5 3.1,-0.1c0.6,-0.8 10.9,-26.6 14.4,-28.3zm-5.60001,13.5l2.4,0c1.6,0 1.9,0.8 1.9,1.1c0.1,0.8 -0.3,1.8 -1.9,1.8l-1.5,0l1.2,2c0.7,1.2 0.39999,1.8 0,2.2c-0.60001,0.6 -1.9,0.6 -2.60001,-0.7l-1.39999,-2.4c-1,2.2 -2,4.6 -3.2,7.4l6.2,0c3,0 5.5,-2.5 5.5,-5.5l0,-16.8c0,-0.3 0,-0.4 0,-0.7c-0.10001,-0.2 -0.3,-0.1 -0.40001,0c-0.59999,0.7 -2.3,3.1 -6.2,11.6zm-15.2,12.4l-0.5,0c-3.60001,0 -6.5,-2.9 -6.5,-6.5l0,-16.8c0,-3.6 2.89999,-6.5 6.5,-6.5l14.5,0c-0.3,-0.3 -1.5,-0.8 -2.7,-0.7c-0.5,0 -1.5,0.2 -2.10001,-0.2c-0.6,-0.5 -0.5,-0.8 -1.39999,-0.8c-2.7,0 -8.9,0 -8.9,0c-4.1,0 -7.4,3.3 -7.4,7.4l0,18.20001c0,4.09999 3.3,7.39999 6.9,7.29999c1,0 1.3,-0.8 1.6,-1.4zm22.89999,-23.4l0,16.9c0,3.6 -2.89999,6.5 -6.49999,6.5l-6.7,0c0,0 -0.6,1.6 1.3,1.6c2.7,0 6,0 6,0c4.1,0 7.39999,-3.3 7.39999,-7.4c0,0 0,-11.2 0,-14.7c0.10001,-1.4 -1.09999,-2.3 -1.5,-2.9zm-28.8,0.1l0,16.8c0,3 2.50001,5.5 5.50001,5.5l0.9,0c0,-0.1 1.2,-2.2 3.8,-6.6c0.3,-0.6 0.7,-1.2 1.1,-1.9l-7.3,0c-0.9,0 -1.4,-0.6 -1.5,-1.1c-0.2,-0.8 0.3,-1.8 1.4,-1.8l3.7,0l4.7,-8.2c0,0 -1.1,-2 -1.4,-2.5c-0.4,-0.7 -0.2,-1.4 0.2,-1.8c0.60001,-0.6 1.60001,-0.9 2.60001,0.7l0.39999,0.6l0.4,-0.6c0.9,-1.3 1.5,-1.2 2,-1.1c0.8,0.2 1.3,1.1 0.6,2.5l-6.2,10.40001l2.1,0c0.7,-1.2 1.4,-2.4 2.1,-3.7c-0.1,-0.5 -0.2,-1.1 -0.1,-1.6c0.1,-0.8 0.5,-1.5 1,-2.1l0.6,1c1.9,-3.3 3.3,-6.1 3.7,-7.2c0.2,-0.6 0.5,-1.8 0.2,-2.8l-15,0c-3.1,0 -5.50001,2.5 -5.50001,5.5zm4.30001,16.7c0,-0.1 1.2,-2.2 1.2,-2.2c1.9,-0.5 2.8,0.7 2.9,0.8c0,0 -1.3,2.3 -1.7,2.7s-0.9,0.5 -1.4,0.40001c-0.8,-0.20001 -1.3,-1 -1,-1.70001z" class="st0"/>
 </g>
</svg>